<?xml version="1.0" standalone="no"?>
<!DOCTYPE svg PUBLIC "-//W3C//DTD SVG 20010904//EN"
 "http://www.w3.org/TR/2001/REC-SVG-20010904/DTD/svg10.dtd">
<svg version="1.0" xmlns="http://www.w3.org/2000/svg"
 width="400.000000pt" height="400.000000pt" viewBox="0 0 400.000000 400.000000"
 preserveAspectRatio="xMidYMid meet">
<metadata>
Created by potrace 1.14, written by Peter Selinger 2001-2017
</metadata>
<g transform="translate(0.000000,400.000000) scale(0.100000,-0.100000)"
fill="#000000" stroke="none">
<path d="M0 2005 l0 -1995 2000 0 2000 0 0 1995 0 1995 -2000 0 -2000 0 0
-1995z m1866 1399 c21 -14 73 -58 114 -98 l75 -73 85 -11 c47 -6 97 -8 111 -5
15 3 30 0 33 -6 4 -6 20 -11 36 -11 16 0 32 -4 35 -10 3 -5 17 -10 31 -10 13
0 34 -5 47 -12 48 -25 58 -28 81 -28 14 0 28 -4 31 -10 10 -16 56 -11 94 9 19
10 44 36 56 57 20 36 25 39 65 39 42 0 45 -2 53 -35 11 -46 27 -743 17 -753
-4 -5 -27 -7 -51 -5 l-43 3 -26 70 c-23 62 -65 151 -102 217 -31 55 -122 170
-156 196 -51 41 -214 122 -243 122 -5 0 4 -27 21 -60 108 -214 137 -424 84
-599 -27 -89 -80 -205 -115 -250 -11 -14 -36 -51 -56 -81 -20 -30 -61 -90 -90
-133 -44 -65 -53 -86 -53 -122 0 -66 35 -147 115 -270 40 -60 89 -141 109
-178 37 -69 76 -191 76 -237 0 -22 -3 -20 -21 15 -30 55 -42 71 -92 124 -79
82 -160 230 -208 380 -41 127 -53 20 -20 -174 34 -194 44 -368 27 -460 -8 -44
-17 -87 -21 -96 -9 -23 20 -29 133 -29 89 0 209 19 262 42 109 47 156 85 170
139 12 42 12 347 0 629 -9 216 -16 232 -128 266 -26 7 -60 14 -77 14 -40 0
-51 9 -59 45 -12 58 -21 57 375 61 200 1 380 0 399 -4 31 -7 35 -11 38 -44 4
-41 -7 -51 -73 -63 -65 -11 -101 -40 -119 -93 -14 -39 -17 -120 -23 -472 -6
-474 1 -430 -83 -486 -124 -84 -361 -150 -569 -161 -110 -5 -133 -4 -126 7 5
9 4 11 -3 6 -7 -4 -42 3 -79 14 -38 12 -88 28 -113 36 -25 8 -52 14 -61 14
-15 0 -59 18 -101 41 -10 5 -25 9 -33 9 -8 0 -15 4 -15 9 0 5 -21 12 -47 16
-63 9 -280 114 -346 168 -151 121 -267 374 -296 642 -16 148 -6 483 17 595 62
295 211 549 425 724 108 88 324 186 411 186 52 0 47 18 -29 99 -81 85 -85 111
-20 111 18 0 50 -12 71 -26z"/>
<path d="M1899 3032 c-31 -15 -79 -37 -106 -50 -64 -30 -168 -124 -218 -198
-22 -33 -42 -61 -45 -64 -10 -9 -68 -135 -83 -182 -22 -62 -62 -227 -77 -309
-14 -82 -16 -482 -1 -547 33 -156 57 -243 81 -301 62 -150 155 -274 275 -367
46 -36 157 -94 179 -94 21 0 30 87 23 243 -4 118 -8 138 -32 184 -44 87 -66
249 -45 339 9 38 15 261 9 308 -2 18 -3 18 -15 1 -7 -9 -25 -51 -40 -94 -36
-100 -44 -107 -44 -38 0 142 52 307 186 592 60 129 89 215 104 309 13 79 6
135 -25 201 -7 17 -19 45 -25 63 -15 39 -28 39 -101 4z"/>
<path d="M2013 2322 c-18 -12 -64 -121 -85 -202 -33 -133 -23 -268 15 -194 8
16 29 74 48 129 26 79 33 116 34 180 0 44 4 83 10 87 7 5 7 8 0 8 -5 0 -15 -4
-22 -8z"/>
</g>
</svg>
